<svg xmlns="http://www.w3.org/2000/svg" version="1.1" xmlns:xlink="http://www.w3.org/1999/xlink" xmlns:svgjs="http://svgjs.dev/svgjs" width="1440" height="560" preserveAspectRatio="none" viewBox="0 0 1440 560"><g mask="url(&quot;#SvgjsMask1000&quot;)" fill="none"><rect width="1440" height="560" x="0" y="0" fill="rgba(217, 208, 231, 1)"></rect><path d="M90.3 29L133.61 54L133.61 104L90.3 129L47 104L47 54zM47 254L90.3 279L90.3 329L47 354L3.7 329L3.7 279zM133.61 254L176.91 279L176.91 329L133.61 354L90.3 329L90.3 279zM176.91 329L220.21 354L220.21 404L176.91 429L133.61 404L133.61 354zM176.91 479L220.21 504L220.21 554L176.91 579L133.61 554L133.61 504zM263.51 29L306.81 54L306.81 104L263.51 129L220.21 104L220.21 54zM220.21 404L263.51 429L263.51 479L220.21 504L176.91 479L176.91 429zM350.12 479L393.42 504L393.42 554L350.12 579L306.81 554L306.81 504zM393.42 -46L436.72 -21L436.72 29L393.42 54L350.12 29L350.12 -21zM393.42 104L436.72 129L436.72 179L393.42 204L350.12 179L350.12 129zM393.42 254L436.72 279L436.72 329L393.42 354L350.12 329L350.12 279zM393.42 404L436.72 429L436.72 479L393.42 504L350.12 479L350.12 429zM566.63 104L609.93 129L609.93 179L566.63 204L523.33 179L523.33 129zM609.93 179L653.24 204L653.24 254L609.93 279L566.63 254L566.63 204zM653.24 -46L696.54 -21L696.54 29L653.24 54L609.93 29L609.93 -21zM696.54 29L739.84 54L739.84 104L696.54 129L653.24 104L653.24 54zM653.24 104L696.54 129L696.54 179L653.24 204L609.93 179L609.93 129zM696.54 329L739.84 354L739.84 404L696.54 429L653.24 404L653.24 354zM696.54 479L739.84 504L739.84 554L696.54 579L653.24 554L653.24 504zM739.84 -46L783.14 -21L783.14 29L739.84 54L696.54 29L696.54 -21zM869.75 179L913.05 204L913.05 254L869.75 279L826.45 254L826.45 204zM869.75 329L913.05 354L913.05 404L869.75 429L826.45 404L826.45 354zM826.45 404L869.75 429L869.75 479L826.45 504L783.14 479L783.14 429zM869.75 479L913.05 504L913.05 554L869.75 579L826.45 554L826.45 504zM956.35 29L999.66 54L999.66 104L956.35 129L913.05 104L913.05 54zM956.35 179L999.66 204L999.66 254L956.35 279L913.05 254L913.05 204zM913.05 254L956.35 279L956.35 329L913.05 354L869.75 329L869.75 279zM1042.96 29L1086.26 54L1086.26 104L1042.96 129L999.66 104L999.66 54zM1129.56 29L1172.87 54L1172.87 104L1129.56 129L1086.26 104L1086.26 54zM1086.26 404L1129.56 429L1129.56 479L1086.26 504L1042.96 479L1042.96 429zM1129.56 479L1172.87 504L1172.87 554L1129.56 579L1086.26 554L1086.26 504zM1302.77 29L1346.08 54L1346.08 104L1302.77 129L1259.47 104L1259.47 54zM1259.47 104L1302.77 129L1302.77 179L1259.47 204L1216.17 179L1216.17 129zM1302.77 179L1346.08 204L1346.08 254L1302.77 279L1259.47 254L1259.47 204zM1302.77 329L1346.08 354L1346.08 404L1302.77 429L1259.47 404L1259.47 354zM1302.77 479L1346.08 504L1346.08 554L1302.77 579L1259.47 554L1259.47 504zM1346.08 -46L1389.38 -21L1389.38 29L1346.08 54L1302.77 29L1302.77 -21zM1346.08 404L1389.38 429L1389.38 479L1346.08 504L1302.77 479L1302.77 429zM1432.68 104L1475.98 129L1475.98 179L1432.68 204L1389.38 179L1389.38 129zM1475.98 329L1519.29 354L1519.29 404L1475.98 429L1432.68 404L1432.68 354z" stroke="rgba(230, 222, 242, 1)" stroke-width="2"></path><path d="M85.3 29 a5 5 0 1 0 10 0 a5 5 0 1 0 -10 0zM128.61 54 a5 5 0 1 0 10 0 a5 5 0 1 0 -10 0zM128.61 104 a5 5 0 1 0 10 0 a5 5 0 1 0 -10 0zM85.3 129 a5 5 0 1 0 10 0 a5 5 0 1 0 -10 0zM42 104 a5 5 0 1 0 10 0 a5 5 0 1 0 -10 0zM42 54 a5 5 0 1 0 10 0 a5 5 0 1 0 -10 0zM42 254 a5 5 0 1 0 10 0 a5 5 0 1 0 -10 0zM85.3 279 a5 5 0 1 0 10 0 a5 5 0 1 0 -10 0zM85.3 329 a5 5 0 1 0 10 0 a5 5 0 1 0 -10 0zM42 354 a5 5 0 1 0 10 0 a5 5 0 1 0 -10 0zM-1.3 329 a5 5 0 1 0 10 0 a5 5 0 1 0 -10 0zM-1.3 279 a5 5 0 1 0 10 0 a5 5 0 1 0 -10 0zM128.61 254 a5 5 0 1 0 10 0 a5 5 0 1 0 -10 0zM171.91 279 a5 5 0 1 0 10 0 a5 5 0 1 0 -10 0zM171.91 329 a5 5 0 1 0 10 0 a5 5 0 1 0 -10 0zM128.61 354 a5 5 0 1 0 10 0 a5 5 0 1 0 -10 0zM215.21 354 a5 5 0 1 0 10 0 a5 5 0 1 0 -10 0zM215.21 404 a5 5 0 1 0 10 0 a5 5 0 1 0 -10 0zM171.91 429 a5 5 0 1 0 10 0 a5 5 0 1 0 -10 0zM128.61 404 a5 5 0 1 0 10 0 a5 5 0 1 0 -10 0zM171.91 479 a5 5 0 1 0 10 0 a5 5 0 1 0 -10 0zM215.21 504 a5 5 0 1 0 10 0 a5 5 0 1 0 -10 0zM215.21 554 a5 5 0 1 0 10 0 a5 5 0 1 0 -10 0zM171.91 579 a5 5 0 1 0 10 0 a5 5 0 1 0 -10 0zM128.61 554 a5 5 0 1 0 10 0 a5 5 0 1 0 -10 0zM128.61 504 a5 5 0 1 0 10 0 a5 5 0 1 0 -10 0zM258.51 29 a5 5 0 1 0 10 0 a5 5 0 1 0 -10 0zM301.81 54 a5 5 0 1 0 10 0 a5 5 0 1 0 -10 0zM301.81 104 a5 5 0 1 0 10 0 a5 5 0 1 0 -10 0zM258.51 129 a5 5 0 1 0 10 0 a5 5 0 1 0 -10 0zM215.21 104 a5 5 0 1 0 10 0 a5 5 0 1 0 -10 0zM215.21 54 a5 5 0 1 0 10 0 a5 5 0 1 0 -10 0zM258.51 429 a5 5 0 1 0 10 0 a5 5 0 1 0 -10 0zM258.51 479 a5 5 0 1 0 10 0 a5 5 0 1 0 -10 0zM345.12 479 a5 5 0 1 0 10 0 a5 5 0 1 0 -10 0zM388.42 504 a5 5 0 1 0 10 0 a5 5 0 1 0 -10 0zM388.42 554 a5 5 0 1 0 10 0 a5 5 0 1 0 -10 0zM345.12 579 a5 5 0 1 0 10 0 a5 5 0 1 0 -10 0zM301.81 554 a5 5 0 1 0 10 0 a5 5 0 1 0 -10 0zM301.81 504 a5 5 0 1 0 10 0 a5 5 0 1 0 -10 0zM388.42 -46 a5 5 0 1 0 10 0 a5 5 0 1 0 -10 0zM431.72 -21 a5 5 0 1 0 10 0 a5 5 0 1 0 -10 0zM431.72 29 a5 5 0 1 0 10 0 a5 5 0 1 0 -10 0zM388.42 54 a5 5 0 1 0 10 0 a5 5 0 1 0 -10 0zM345.12 29 a5 5 0 1 0 10 0 a5 5 0 1 0 -10 0zM345.12 -21 a5 5 0 1 0 10 0 a5 5 0 1 0 -10 0zM388.42 104 a5 5 0 1 0 10 0 a5 5 0 1 0 -10 0zM431.72 129 a5 5 0 1 0 10 0 a5 5 0 1 0 -10 0zM431.72 179 a5 5 0 1 0 10 0 a5 5 0 1 0 -10 0zM388.42 204 a5 5 0 1 0 10 0 a5 5 0 1 0 -10 0zM345.12 179 a5 5 0 1 0 10 0 a5 5 0 1 0 -10 0zM345.12 129 a5 5 0 1 0 10 0 a5 5 0 1 0 -10 0zM388.42 254 a5 5 0 1 0 10 0 a5 5 0 1 0 -10 0zM431.72 279 a5 5 0 1 0 10 0 a5 5 0 1 0 -10 0zM431.72 329 a5 5 0 1 0 10 0 a5 5 0 1 0 -10 0zM388.42 354 a5 5 0 1 0 10 0 a5 5 0 1 0 -10 0zM345.12 329 a5 5 0 1 0 10 0 a5 5 0 1 0 -10 0zM345.12 279 a5 5 0 1 0 10 0 a5 5 0 1 0 -10 0zM388.42 404 a5 5 0 1 0 10 0 a5 5 0 1 0 -10 0zM431.72 429 a5 5 0 1 0 10 0 a5 5 0 1 0 -10 0zM431.72 479 a5 5 0 1 0 10 0 a5 5 0 1 0 -10 0zM345.12 429 a5 5 0 1 0 10 0 a5 5 0 1 0 -10 0zM561.63 104 a5 5 0 1 0 10 0 a5 5 0 1 0 -10 0zM604.93 129 a5 5 0 1 0 10 0 a5 5 0 1 0 -10 0zM604.93 179 a5 5 0 1 0 10 0 a5 5 0 1 0 -10 0zM561.63 204 a5 5 0 1 0 10 0 a5 5 0 1 0 -10 0zM518.33 179 a5 5 0 1 0 10 0 a5 5 0 1 0 -10 0zM518.33 129 a5 5 0 1 0 10 0 a5 5 0 1 0 -10 0zM648.24 204 a5 5 0 1 0 10 0 a5 5 0 1 0 -10 0zM648.24 254 a5 5 0 1 0 10 0 a5 5 0 1 0 -10 0zM604.93 279 a5 5 0 1 0 10 0 a5 5 0 1 0 -10 0zM561.63 254 a5 5 0 1 0 10 0 a5 5 0 1 0 -10 0zM648.24 -46 a5 5 0 1 0 10 0 a5 5 0 1 0 -10 0zM691.54 -21 a5 5 0 1 0 10 0 a5 5 0 1 0 -10 0zM691.54 29 a5 5 0 1 0 10 0 a5 5 0 1 0 -10 0zM648.24 54 a5 5 0 1 0 10 0 a5 5 0 1 0 -10 0zM604.93 29 a5 5 0 1 0 10 0 a5 5 0 1 0 -10 0zM604.93 -21 a5 5 0 1 0 10 0 a5 5 0 1 0 -10 0zM734.84 54 a5 5 0 1 0 10 0 a5 5 0 1 0 -10 0zM734.84 104 a5 5 0 1 0 10 0 a5 5 0 1 0 -10 0zM691.54 129 a5 5 0 1 0 10 0 a5 5 0 1 0 -10 0zM648.24 104 a5 5 0 1 0 10 0 a5 5 0 1 0 -10 0zM691.54 179 a5 5 0 1 0 10 0 a5 5 0 1 0 -10 0zM691.54 329 a5 5 0 1 0 10 0 a5 5 0 1 0 -10 0zM734.84 354 a5 5 0 1 0 10 0 a5 5 0 1 0 -10 0zM734.84 404 a5 5 0 1 0 10 0 a5 5 0 1 0 -10 0zM691.54 429 a5 5 0 1 0 10 0 a5 5 0 1 0 -10 0zM648.24 404 a5 5 0 1 0 10 0 a5 5 0 1 0 -10 0zM648.24 354 a5 5 0 1 0 10 0 a5 5 0 1 0 -10 0zM691.54 479 a5 5 0 1 0 10 0 a5 5 0 1 0 -10 0zM734.84 504 a5 5 0 1 0 10 0 a5 5 0 1 0 -10 0zM734.84 554 a5 5 0 1 0 10 0 a5 5 0 1 0 -10 0zM691.54 579 a5 5 0 1 0 10 0 a5 5 0 1 0 -10 0zM648.24 554 a5 5 0 1 0 10 0 a5 5 0 1 0 -10 0zM648.24 504 a5 5 0 1 0 10 0 a5 5 0 1 0 -10 0zM734.84 -46 a5 5 0 1 0 10 0 a5 5 0 1 0 -10 0zM778.14 -21 a5 5 0 1 0 10 0 a5 5 0 1 0 -10 0zM778.14 29 a5 5 0 1 0 10 0 a5 5 0 1 0 -10 0zM864.75 179 a5 5 0 1 0 10 0 a5 5 0 1 0 -10 0zM908.05 204 a5 5 0 1 0 10 0 a5 5 0 1 0 -10 0zM908.05 254 a5 5 0 1 0 10 0 a5 5 0 1 0 -10 0zM864.75 279 a5 5 0 1 0 10 0 a5 5 0 1 0 -10 0zM821.45 254 a5 5 0 1 0 10 0 a5 5 0 1 0 -10 0zM821.45 204 a5 5 0 1 0 10 0 a5 5 0 1 0 -10 0zM864.75 329 a5 5 0 1 0 10 0 a5 5 0 1 0 -10 0zM908.05 354 a5 5 0 1 0 10 0 a5 5 0 1 0 -10 0zM908.05 404 a5 5 0 1 0 10 0 a5 5 0 1 0 -10 0zM864.75 429 a5 5 0 1 0 10 0 a5 5 0 1 0 -10 0zM821.45 404 a5 5 0 1 0 10 0 a5 5 0 1 0 -10 0zM821.45 354 a5 5 0 1 0 10 0 a5 5 0 1 0 -10 0zM864.75 479 a5 5 0 1 0 10 0 a5 5 0 1 0 -10 0zM821.45 504 a5 5 0 1 0 10 0 a5 5 0 1 0 -10 0zM778.14 479 a5 5 0 1 0 10 0 a5 5 0 1 0 -10 0zM778.14 429 a5 5 0 1 0 10 0 a5 5 0 1 0 -10 0zM908.05 504 a5 5 0 1 0 10 0 a5 5 0 1 0 -10 0zM908.05 554 a5 5 0 1 0 10 0 a5 5 0 1 0 -10 0zM864.75 579 a5 5 0 1 0 10 0 a5 5 0 1 0 -10 0zM821.45 554 a5 5 0 1 0 10 0 a5 5 0 1 0 -10 0zM951.35 29 a5 5 0 1 0 10 0 a5 5 0 1 0 -10 0zM994.66 54 a5 5 0 1 0 10 0 a5 5 0 1 0 -10 0zM994.66 104 a5 5 0 1 0 10 0 a5 5 0 1 0 -10 0zM951.35 129 a5 5 0 1 0 10 0 a5 5 0 1 0 -10 0zM908.05 104 a5 5 0 1 0 10 0 a5 5 0 1 0 -10 0zM908.05 54 a5 5 0 1 0 10 0 a5 5 0 1 0 -10 0zM951.35 179 a5 5 0 1 0 10 0 a5 5 0 1 0 -10 0zM994.66 204 a5 5 0 1 0 10 0 a5 5 0 1 0 -10 0zM994.66 254 a5 5 0 1 0 10 0 a5 5 0 1 0 -10 0zM951.35 279 a5 5 0 1 0 10 0 a5 5 0 1 0 -10 0zM951.35 329 a5 5 0 1 0 10 0 a5 5 0 1 0 -10 0zM1037.96 29 a5 5 0 1 0 10 0 a5 5 0 1 0 -10 0zM1081.26 54 a5 5 0 1 0 10 0 a5 5 0 1 0 -10 0zM1081.26 104 a5 5 0 1 0 10 0 a5 5 0 1 0 -10 0zM1037.96 129 a5 5 0 1 0 10 0 a5 5 0 1 0 -10 0zM1124.56 29 a5 5 0 1 0 10 0 a5 5 0 1 0 -10 0zM1167.87 54 a5 5 0 1 0 10 0 a5 5 0 1 0 -10 0zM1167.87 104 a5 5 0 1 0 10 0 a5 5 0 1 0 -10 0zM1124.56 129 a5 5 0 1 0 10 0 a5 5 0 1 0 -10 0zM1081.26 404 a5 5 0 1 0 10 0 a5 5 0 1 0 -10 0zM1124.56 429 a5 5 0 1 0 10 0 a5 5 0 1 0 -10 0zM1124.56 479 a5 5 0 1 0 10 0 a5 5 0 1 0 -10 0zM1081.26 504 a5 5 0 1 0 10 0 a5 5 0 1 0 -10 0zM1037.96 479 a5 5 0 1 0 10 0 a5 5 0 1 0 -10 0zM1037.96 429 a5 5 0 1 0 10 0 a5 5 0 1 0 -10 0zM1167.87 504 a5 5 0 1 0 10 0 a5 5 0 1 0 -10 0zM1167.87 554 a5 5 0 1 0 10 0 a5 5 0 1 0 -10 0zM1124.56 579 a5 5 0 1 0 10 0 a5 5 0 1 0 -10 0zM1081.26 554 a5 5 0 1 0 10 0 a5 5 0 1 0 -10 0zM1297.77 29 a5 5 0 1 0 10 0 a5 5 0 1 0 -10 0zM1341.08 54 a5 5 0 1 0 10 0 a5 5 0 1 0 -10 0zM1341.08 104 a5 5 0 1 0 10 0 a5 5 0 1 0 -10 0zM1297.77 129 a5 5 0 1 0 10 0 a5 5 0 1 0 -10 0zM1254.47 104 a5 5 0 1 0 10 0 a5 5 0 1 0 -10 0zM1254.47 54 a5 5 0 1 0 10 0 a5 5 0 1 0 -10 0zM1297.77 179 a5 5 0 1 0 10 0 a5 5 0 1 0 -10 0zM1254.47 204 a5 5 0 1 0 10 0 a5 5 0 1 0 -10 0zM1211.17 179 a5 5 0 1 0 10 0 a5 5 0 1 0 -10 0zM1211.17 129 a5 5 0 1 0 10 0 a5 5 0 1 0 -10 0zM1341.08 204 a5 5 0 1 0 10 0 a5 5 0 1 0 -10 0zM1341.08 254 a5 5 0 1 0 10 0 a5 5 0 1 0 -10 0zM1297.77 279 a5 5 0 1 0 10 0 a5 5 0 1 0 -10 0zM1254.47 254 a5 5 0 1 0 10 0 a5 5 0 1 0 -10 0zM1297.77 329 a5 5 0 1 0 10 0 a5 5 0 1 0 -10 0zM1341.08 354 a5 5 0 1 0 10 0 a5 5 0 1 0 -10 0zM1341.08 404 a5 5 0 1 0 10 0 a5 5 0 1 0 -10 0zM1297.77 429 a5 5 0 1 0 10 0 a5 5 0 1 0 -10 0zM1254.47 404 a5 5 0 1 0 10 0 a5 5 0 1 0 -10 0zM1254.47 354 a5 5 0 1 0 10 0 a5 5 0 1 0 -10 0zM1297.77 479 a5 5 0 1 0 10 0 a5 5 0 1 0 -10 0zM1341.08 504 a5 5 0 1 0 10 0 a5 5 0 1 0 -10 0zM1341.08 554 a5 5 0 1 0 10 0 a5 5 0 1 0 -10 0zM1297.77 579 a5 5 0 1 0 10 0 a5 5 0 1 0 -10 0zM1254.47 554 a5 5 0 1 0 10 0 a5 5 0 1 0 -10 0zM1254.47 504 a5 5 0 1 0 10 0 a5 5 0 1 0 -10 0zM1341.08 -46 a5 5 0 1 0 10 0 a5 5 0 1 0 -10 0zM1384.38 -21 a5 5 0 1 0 10 0 a5 5 0 1 0 -10 0zM1384.38 29 a5 5 0 1 0 10 0 a5 5 0 1 0 -10 0zM1297.77 -21 a5 5 0 1 0 10 0 a5 5 0 1 0 -10 0zM1384.38 429 a5 5 0 1 0 10 0 a5 5 0 1 0 -10 0zM1384.38 479 a5 5 0 1 0 10 0 a5 5 0 1 0 -10 0zM1427.68 104 a5 5 0 1 0 10 0 a5 5 0 1 0 -10 0zM1470.98 129 a5 5 0 1 0 10 0 a5 5 0 1 0 -10 0zM1470.98 179 a5 5 0 1 0 10 0 a5 5 0 1 0 -10 0zM1427.68 204 a5 5 0 1 0 10 0 a5 5 0 1 0 -10 0zM1384.38 179 a5 5 0 1 0 10 0 a5 5 0 1 0 -10 0zM1384.38 129 a5 5 0 1 0 10 0 a5 5 0 1 0 -10 0zM1470.98 329 a5 5 0 1 0 10 0 a5 5 0 1 0 -10 0zM1514.29 354 a5 5 0 1 0 10 0 a5 5 0 1 0 -10 0zM1514.29 404 a5 5 0 1 0 10 0 a5 5 0 1 0 -10 0zM1470.98 429 a5 5 0 1 0 10 0 a5 5 0 1 0 -10 0zM1427.68 404 a5 5 0 1 0 10 0 a5 5 0 1 0 -10 0zM1427.68 354 a5 5 0 1 0 10 0 a5 5 0 1 0 -10 0z" fill="rgba(230, 222, 242, 1)"></path><path d="M5.07 293.83L48.37 318.83L48.37 368.83L5.07 393.83L-38.23 368.83L-38.23 318.83zM134.98 68.83L178.28 93.83L178.28 143.83L134.98 168.83L91.68 143.83L91.68 93.83zM134.98 218.83L178.28 243.83L178.28 293.83L134.98 318.83L91.68 293.83L91.68 243.83zM134.98 518.83L178.28 543.83L178.28 593.83L134.98 618.83L91.68 593.83L91.68 543.83zM178.28 293.83L221.58 318.83L221.58 368.83L178.28 393.83L134.98 368.83L134.98 318.83zM221.58 368.83L264.88 393.83L264.88 443.83L221.58 468.83L178.28 443.83L178.28 393.83zM308.19 68.83L351.49 93.83L351.49 143.83L308.19 168.83L264.88 143.83L264.88 93.83zM264.88 443.83L308.19 468.83L308.19 518.83L264.88 543.83L221.58 518.83L221.58 468.83zM351.49 -6.17L394.79 18.83L394.79 68.83L351.49 93.83L308.19 68.83L308.19 18.83zM351.49 143.83L394.79 168.83L394.79 218.83L351.49 243.83L308.19 218.83L308.19 168.83zM351.49 443.83L394.79 468.83L394.79 518.83L351.49 543.83L308.19 518.83L308.19 468.83zM481.4 218.83L524.7 243.83L524.7 293.83L481.4 318.83L438.1 293.83L438.1 243.83zM524.7 -6.17L568 18.83L568 68.83L524.7 93.83L481.4 68.83L481.4 18.83zM568 368.83L611.31 393.83L611.31 443.83L568 468.83L524.7 443.83L524.7 393.83zM654.61 368.83L697.91 393.83L697.91 443.83L654.61 468.83L611.31 443.83L611.31 393.83zM741.21 68.83L784.52 93.83L784.52 143.83L741.21 168.83L697.91 143.83L697.91 93.83zM697.91 143.83L741.21 168.83L741.21 218.83L697.91 243.83L654.61 218.83L654.61 168.83zM741.21 218.83L784.52 243.83L784.52 293.83L741.21 318.83L697.91 293.83L697.91 243.83zM871.12 143.83L914.42 168.83L914.42 218.83L871.12 243.83L827.82 218.83L827.82 168.83zM871.12 443.83L914.42 468.83L914.42 518.83L871.12 543.83L827.82 518.83L827.82 468.83zM914.42 518.83L957.73 543.83L957.73 593.83L914.42 618.83L871.12 593.83L871.12 543.83zM957.73 -6.17L1001.03 18.83L1001.03 68.83L957.73 93.83L914.42 68.83L914.42 18.83zM1044.33 143.83L1087.63 168.83L1087.63 218.83L1044.33 243.83L1001.03 218.83L1001.03 168.83zM1044.33 293.83L1087.63 318.83L1087.63 368.83L1044.33 393.83L1001.03 368.83L1001.03 318.83zM1130.93 -6.17L1174.24 18.83L1174.24 68.83L1130.93 93.83L1087.63 68.83L1087.63 18.83zM1174.24 368.83L1217.54 393.83L1217.54 443.83L1174.24 468.83L1130.93 443.83L1130.93 393.83zM1174.24 518.83L1217.54 543.83L1217.54 593.83L1174.24 618.83L1130.93 593.83L1130.93 543.83zM1217.54 443.83L1260.84 468.83L1260.84 518.83L1217.54 543.83L1174.24 518.83L1174.24 468.83zM1304.14 293.83L1347.45 318.83L1347.45 368.83L1304.14 393.83L1260.84 368.83L1260.84 318.83zM1347.45 368.83L1390.75 393.83L1390.75 443.83L1347.45 468.83L1304.14 443.83L1304.14 393.83zM1390.75 -6.17L1434.05 18.83L1434.05 68.83L1390.75 93.83L1347.45 68.83L1347.45 18.83zM1390.75 293.83L1434.05 318.83L1434.05 368.83L1390.75 393.83L1347.45 368.83L1347.45 318.83zM1390.75 443.83L1434.05 468.83L1434.05 518.83L1390.75 543.83L1347.45 518.83L1347.45 468.83z" stroke="rgba(244, 240, 249, 1)" stroke-width="2"></path></g><defs><mask id="SvgjsMask1000"><rect width="1440" height="560" fill="#ffffff"></rect></mask></defs></svg>