<?xml version="1.0" encoding="UTF-8"?>
<svg id="Layer_1" data-name="Layer 1" xmlns="http://www.w3.org/2000/svg" xmlns:xlink="http://www.w3.org/1999/xlink" viewBox="0 0 500 500">
  <defs>
    <style>
      .cls-1 {
        fill: url(#linear-gradient-2);
      }

      .cls-2 {
        fill: url(#linear-gradient-13);
      }

      .cls-2, .cls-3, .cls-4 {
        isolation: isolate;
      }

      .cls-2, .cls-4 {
        opacity: .54;
      }

      .cls-5 {
        fill: #bd8f63;
      }

      .cls-6 {
        fill: #fff;
      }

      .cls-7 {
        fill: #d4a271;
      }

      .cls-8 {
        fill: #cd9c6b;
      }

      .cls-9 {
        fill: url(#linear-gradient-14);
      }

      .cls-10 {
        fill: url(#linear-gradient-6);
      }

      .cls-11 {
        fill: #e8b67f;
      }

      .cls-12 {
        fill: url(#linear-gradient-11);
      }

      .cls-13 {
        fill: #dbad77;
      }

      .cls-3 {
        fill: url(#linear-gradient-9);
        opacity: .75;
      }

      .cls-14 {
        fill: #322214;
      }

      .cls-15 {
        fill: #f4efc9;
      }

      .cls-16 {
        fill: #f8ce93;
      }

      .cls-17 {
        fill: #bf9064;
      }

      .cls-18 {
        fill: url(#linear-gradient-5);
      }

      .cls-4 {
        fill: url(#linear-gradient-10);
      }

      .cls-19 {
        fill: none;
      }

      .cls-20 {
        fill: url(#linear-gradient-7);
      }

      .cls-21 {
        fill: #d2a679;
      }

      .cls-22 {
        fill: #d7aa77;
      }

      .cls-23 {
        fill: url(#linear-gradient-3);
      }

      .cls-24 {
        fill: url(#linear-gradient);
      }

      .cls-25 {
        fill: url(#linear-gradient-4);
      }

      .cls-26 {
        fill: url(#linear-gradient-8);
      }

      .cls-27 {
        fill: #deb37e;
      }

      .cls-28 {
        fill: url(#linear-gradient-12);
      }
    </style>
    <linearGradient id="linear-gradient" x1="3.22" y1="503.08" x2="3.24" y2="503.07" gradientTransform="translate(84.51 23337.56) scale(71.1 -45.67)" gradientUnits="userSpaceOnUse">
      <stop offset="0" stop-color="#000"/>
      <stop offset="1" stop-color="#000" stop-opacity="0"/>
    </linearGradient>
    <linearGradient id="linear-gradient-2" x1="2.23" y1="503.9" x2="2.22" y2="503.89" gradientTransform="translate(-11.75 18907.7) scale(96.33 -36.8)" xlink:href="#linear-gradient"/>
    <linearGradient id="linear-gradient-3" x1="3.9" y1="504.53" x2="4.07" y2="504.48" gradientTransform="translate(7.9 20472.44) scale(55.69 -40.15)" gradientUnits="userSpaceOnUse">
      <stop offset="0" stop-color="#c37a44"/>
      <stop offset=".44" stop-color="#bb713d"/>
      <stop offset=".64" stop-color="#a05728"/>
      <stop offset="1" stop-color="#964e23"/>
    </linearGradient>
    <linearGradient id="linear-gradient-4" x1="2.11" y1="502.65" x2="1.81" y2="502.89" gradientTransform="translate(-48.29 32538) scale(111.45 -64.37)" gradientUnits="userSpaceOnUse">
      <stop offset="0" stop-color="#e9b880"/>
      <stop offset="1" stop-color="#e4af76"/>
    </linearGradient>
    <linearGradient id="linear-gradient-5" x1="3.26" y1="508.2" x2="3.24" y2="508.23" gradientTransform="translate(2.95 12050.64) scale(60.4 -23.31)" gradientUnits="userSpaceOnUse">
      <stop offset="0" stop-color="#c37a45" stop-opacity="0"/>
      <stop offset=".13" stop-color="#c37a45"/>
      <stop offset=".29" stop-color="#d08d55"/>
      <stop offset=".5" stop-color="#dea167"/>
      <stop offset=".7" stop-color="#e8af73"/>
      <stop offset=".86" stop-color="#ecb477"/>
      <stop offset="1" stop-color="#ecb477" stop-opacity="0"/>
    </linearGradient>
    <linearGradient id="linear-gradient-6" x1="3.22" y1="503.33" x2="2.88" y2="502.68" gradientTransform="translate(63.32 28290.98) scale(66.3 -55.79)" gradientUnits="userSpaceOnUse">
      <stop offset=".09" stop-color="#af6938"/>
      <stop offset=".48" stop-color="#9a5227"/>
      <stop offset=".78" stop-color="#8d4520"/>
    </linearGradient>
    <linearGradient id="linear-gradient-7" x1="1.93" y1="503.37" x2="2.14" y2="503.54" gradientTransform="translate(63.67 27355.48) scale(121.43 -53.99)" gradientUnits="userSpaceOnUse">
      <stop offset=".03" stop-color="#e4af76"/>
      <stop offset="1" stop-color="#e9b880"/>
    </linearGradient>
    <linearGradient id="linear-gradient-8" x1="3.12" y1="510.37" x2="3.13" y2="510.39" gradientTransform="translate(63.31 9775.72) scale(70.3 -18.76)" gradientUnits="userSpaceOnUse">
      <stop offset="0" stop-color="#af6a38" stop-opacity="0"/>
      <stop offset=".09" stop-color="#af6a38"/>
      <stop offset=".2" stop-color="#b87542"/>
      <stop offset=".58" stop-color="#d59c66"/>
      <stop offset=".78" stop-color="#e4af76"/>
      <stop offset=".92" stop-color="#e4af76" stop-opacity="0"/>
    </linearGradient>
    <linearGradient id="linear-gradient-9" x1="51.28" y1="504.37" x2="52.42" y2="504.37" gradientTransform="translate(61.65 20802.71) scale(3.41 -40.81)" gradientUnits="userSpaceOnUse">
      <stop offset="0" stop-color="#743f1a" stop-opacity="0"/>
      <stop offset=".49" stop-color="#743f1a" stop-opacity=".89"/>
      <stop offset=".5" stop-color="#743f1a" stop-opacity=".9"/>
      <stop offset=".53" stop-color="#743f1a" stop-opacity=".85"/>
      <stop offset="1" stop-color="#743f1a" stop-opacity="0"/>
    </linearGradient>
    <linearGradient id="linear-gradient-10" x1="2.21" y1="503.91" x2="2.21" y2="503.92" gradientTransform="translate(-12.27 18848.79) scale(97.03 -36.68)" gradientUnits="userSpaceOnUse">
      <stop offset="0" stop-color="#322214"/>
      <stop offset=".24" stop-color="#322314" stop-opacity=".99"/>
      <stop offset="1" stop-color="#322214" stop-opacity="0"/>
    </linearGradient>
    <linearGradient id="linear-gradient-11" x1="1.64" y1="503.22" x2="1.6" y2="503.17" gradientTransform="translate(-56 26891.03) scale(141.43 -52.98)" gradientUnits="userSpaceOnUse">
      <stop offset=".05" stop-color="#c69866"/>
      <stop offset=".42" stop-color="#ba8c5e"/>
      <stop offset=".81" stop-color="#b5875b"/>
    </linearGradient>
    <linearGradient id="linear-gradient-12" x1="3.48" y1="503.37" x2="2.98" y2="503.88" gradientTransform="translate(-15.41 25347.97) scale(55.56 -49.87)" gradientUnits="userSpaceOnUse">
      <stop offset="0" stop-color="#845f35"/>
      <stop offset=".43" stop-color="#91673c"/>
      <stop offset=".44" stop-color="#976a40"/>
      <stop offset=".87" stop-color="#986b40"/>
      <stop offset="1" stop-color="#ab8157"/>
    </linearGradient>
    <linearGradient id="linear-gradient-13" x1="3.23" y1="503.09" x2="3.23" y2="503.09" gradientTransform="translate(84.75 23274.45) scale(71.2 -45.55)" gradientUnits="userSpaceOnUse">
      <stop offset="0" stop-color="#322214" stop-opacity="0"/>
      <stop offset="1" stop-color="#322214"/>
    </linearGradient>
    <linearGradient id="linear-gradient-14" x1="4.23" y1="502.39" x2="4.29" y2="502.78" gradientTransform="translate(119 32403.64) scale(53.64 -64.02)" gradientUnits="userSpaceOnUse">
      <stop offset="0" stop-color="#a9794b"/>
      <stop offset=".39" stop-color="#ae7f53"/>
      <stop offset=".46" stop-color="#ac7d50"/>
      <stop offset=".62" stop-color="#a9794b"/>
      <stop offset="1" stop-color="#b2875d"/>
    </linearGradient>
  </defs>
  <rect class="cls-19" width="500" height="500"/>
  <rect class="cls-15" x="52.23" y="52.23" width="395.53" height="395.53"/>
  <path class="cls-6" d="M266.86,398.96c-.94,0-1.87-.15-2.75-.44-.1-.03-.2-.07-.29-.1l-128.34-47.83c-2.32-.88-4.05-2.6-4.96-4.67-.79-1.29-1.39-2.98-1.5-5.19-4.02-79.47-5.12-101.35-5.43-107.45l-49.05-27.89c-3.56-2.03-5.02-6.42-3.37-10.17l.44-1c1.3-2.96,4.21-4.78,7.32-4.78,.66,0,1.33,.08,1.99,.25l19.31,4.95-18.14-28.18c-1.12-1.74-1.5-3.8-1.15-5.74,.24-1.38,.84-2.7,1.79-3.81l.47-.55c1.06-1.25,2.49-2.14,4.07-2.55l109.48-28.45c.75-.21,1.5-.32,2.26-.32,2.65,0,5.07,1.25,6.64,3.44,.05,.07,.1,.14,.15,.21l32.51,48.69,28.87-42c1.58-2.32,4.06-3.64,6.83-3.64,.4,0,.88,.04,1.27,.1,.05,0,127.41,21.92,127.41,21.92,2.87,.49,5.24,2.5,6.2,5.25l.21,.62c.78,2.25,.52,4.73-.71,6.77l-2.02,3.35,11.42-4.85c1.01-.43,2.08-.64,3.13-.64,2.51,0,4.95,1.18,6.49,3.32l.59,.82c2.41,3.34,1.89,7.97-1.21,10.69l-51.03,44.83-5.27,105.58c0,.2-.02,.4-.05,.6-.08,.73-.27,1.59-.64,2.49-.52,2.13-1.84,4.06-3.85,5.31l-94.38,59.68c-1.41,.91-3.03,1.38-4.7,1.38Z"/>
  <path class="cls-6" d="M367.81,221.76c-.11-.56,.36-1.7,1.3-2.65l7.26-6.38,45.13-39.65-.59-.82-34.19,14.53,14.82-24.53-.21-.62-127.24-21.89c-.17-.03-.21,.03-.29,.15l-33.7,49.01c-.1,.14-.21,.32-.31,.52h0c-.12,.23-.24,.5-.34,.77-.03,.08-.06,.16-.1,.23-.08,.21-.15,.44-.21,.66-.01,.05-.04,.12-.05,.19-.02,.07-.03,.13-.05,.2-.02,.08-.04,.15-.05,.23-.01,.06-.03,.13-.05,.19-.01,.07-.01,.12-.03,.17-.01,.05-.01,.11-.03,.16,0,.05-.01,.09-.01,.13-.01,.07-.01,.13-.01,.19v.11h0l-.46-.36v.38h-.01v-.39l-.17,.33c-.01-.11-.03-.23-.05-.36-.06-.48-.25-1.12-.86-2.04l-.74-1.1-37.38-55.99c-.07-.09-.09-.12-.25-.07l-109.6,28.49-.47,.55v.02s0,.01,0,.01l29.18,45.33-39.07-10.02-.44,1,52.15,29.65c.25,.16,1.05,1.73,1.14,2.14,.01,.01,0,.02,0,.03,0,0,0,.01,0,.02,0,0,0,0,0,0h0s-.02,.07-.04,.1c0,0,0,0,0,.01-.07,.09-.17,.2-.22,.33,0,0-.01,.01-.01,.03-.01,.03-.01,.05-.01,.08v.03s5.53,109.48,5.53,109.48c.04,.81,.15,1.49,.83,1.81-.14,.38,.05,.79,.43,.93l128.34,47.83c.08,.03,.17,.04,.25,.04,.13,0,.27-.04,.39-.12l94.45-59.72c.34-.21,.43-.65,.24-.99,.32-.26,.5-.5,.55-.96h0s5.36-107.29,5.36-107.29c-.01-.03-.03-.05-.03-.12h0Z"/>
  <path class="cls-6" d="M267.4,266.77c0-.4-.03-.82-.14-1.24,.12,.43,.15,.85,.16,1.26,0,.05,.03,.07,.04,.1-.01-.02-.03-.03-.03-.05,0-.01-.01-.02-.02-.04,0-.01,0-.02,0-.03Z"/>
  <path class="cls-6" d="M267.17,265.3c-.02-.06-.04-.12-.06-.18,.03,.06,.04,.12,.06,.18Z"/>
  <g>
    <path class="cls-24" d="M266.77,389.41l94.14-59.53c.35-.21,.8-.12,1.02,.23s.12,.8-.23,1.02l-94.45,59.72c-.12,.08-.25,.12-.39,.12l-.09-1.55Z"/>
    <path class="cls-1" d="M266.86,390.96c-.08,0-.17-.01-.25-.04l-128.34-47.83c-.39-.15-.58-.56-.43-.95,.15-.39,.56-.58,.95-.43l128.01,47.7,.07,1.55Z"/>
    <path class="cls-11" d="M401.54,162.26l-14.82,24.53-59.53,25.31-3.31,1.41-53.5,50.03c-1.03,1.03-1.73,2.51-1.85,3.32-.05,.28-.29,.16-.52,.15-.24-.01-.58,.08-.6-.21-.03-1.07-.15-2.26-1.88-3.34l-26.81-17.36h0l-19.55-12.67-55.07-14.12-46.09-11.82-29.2-45.35,.44-.51,.03-.04,109.6-28.49c.16-.05,.19-.03,.25,.07l37.38,55.99,.74,1.1c.8,1.18,.88,1.9,.88,2.43h.68v-.12c0-.05,0-.12,.01-.19,0-.04,.01-.08,.01-.13,.01-.05,.01-.11,.03-.16,.01-.05,.01-.11,.03-.17,.04-.19,.09-.4,.15-.62,.01-.07,.04-.13,.05-.19,.07-.21,.13-.44,.21-.66,.04-.08,.07-.17,.11-.25,.11-.27,.21-.51,.33-.72,.11-.21,.21-.39,.32-.54l33.7-49.01c.08-.12,.12-.17,.29-.15l127.24,21.89,.21,.6Z"/>
    <polygon class="cls-23" points="238.73 246.08 238.71 246.08 219.18 233.42 164.11 219.3 238.15 192.68 238.35 192.29 238.35 192.68 238.73 246.08"/>
    <path class="cls-25" d="M238.15,192.68l-74.04,26.61-6.67-1.72-39.42-10.12-29.2-45.35,.47-.55,109.6-28.49c.16-.05,.19-.03,.25,.07l37.38,55.99,.74,1.1c.8,1.21,.88,1.93,.88,2.45Z"/>
    <path class="cls-18" d="M238.41,195.5l-70.01,25.16-10.92-2.8,79.09-28.43,.74,1.1c.8,1.18,.88,1.9,.88,2.43h.2v2.55Z"/>
    <polygon class="cls-21" points="119.02 207.72 118.03 207.47 88.84 162.12 89.28 161.61 119.02 207.72"/>
    <path class="cls-10" d="M327.2,212.1l-3.31,1.41-53.5,50.03c-1.03,1.03-1.73,2.51-1.85,3.32-.05,.28-.29,.16-.52,.15-.24-.01-.58,.08-.6-.21-.03-1.07-.15-2.26-1.88-3.34l-26.81-17.38-.36-53.39v-.39l.5,.39,88.34,19.41Z"/>
    <path class="cls-20" d="M401.54,162.26l-14.82,24.53-54.18,23.03-5.33,2.26-88.36-19.41c-.05-.68,.42-2.24,.92-3.23,.11-.21,.21-.39,.32-.54l33.7-49.01c.08-.12,.12-.17,.29-.15l127.24,21.89,.21,.62Z"/>
    <path class="cls-26" d="M332.54,209.83l-8.64,3.67-1.11,1.07-84.44-18.66,.39-3.24h.11c-.05-.68,.42-2.24,.92-3.23l92.77,20.39Z"/>
    <polygon class="cls-3" points="240.69 193.08 240.69 247.36 238.73 246.08 238.71 246.08 236.13 244.39 236.13 193.4 238.15 192.68 238.83 192.68 240.69 193.08"/>
    <path class="cls-17" d="M266.34,390.09l-128.45-47.93c-.72-.31-.83-.99-.87-1.84,0,0-5.52-109.47-5.53-109.48-.01-.28,.33-.46,.31-.63-.09-.42-.88-1.98-1.14-2.14l-52.16-29.64,.44-1,140.24,35.99,46.35,30.03c1.73,1.07,1.86,2.26,1.88,3.34,.01,.29,.36,.2,.6,.21s.47,.13,.52-.15c.12-.82,.82-2.29,1.85-3.31l53.5-50.03,97.02-41.24,.59,.82-52.37,46.02c-1.02,1.02-1.49,2.26-1.29,2.77l-5.36,107.28c-.08,.68-.4,.88-1.09,1.35l-93.9,59.44c-.38,.24-.78,.31-1.14,.13Z"/>
    <path class="cls-5" d="M268,267l-.92,123.14c-.25,.07-.51,.05-.75-.05l-128.45-47.91c-.72-.31-.83-1-.87-1.84,0,0-5.53-109.47-5.53-109.48v-.03s0-.05,.01-.08c0-.03,.01-.04,.03-.05,.01-.03,.03-.04,.04-.07,.01-.03,.03-.04,.04-.07,.05-.08,.13-.16,.16-.23,.01-.01,.01-.03,.01-.04h0s135.65,36.54,135.65,36.54c.05,.24,.38,.15,.59,.16Z"/>
    <path class="cls-4" d="M267.09,389.78v.35c-.25,.07-.51,.05-.75-.05l-128.45-47.91c-.51-.21-.71-.63-.8-1.14l130,48.76Z"/>
    <path class="cls-14" d="M209.01,315.08l49.73,16.27-.12,48.5-48.81-17.93-.8-46.84Zm24.92,32.58l.12,22.47,24.09,8.85v-22.9s-24.21-8.41-24.21-8.41Zm7.12,7.26l4.87,7.75,4.77-4.18,.83,.95-4.92,4.31,4.93,7.85-.71,.45-4.86-7.74-4.75,4.16-.83-.95,4.9-4.29-4.94-7.86,.71-.45Zm14.33,8.73v2.21l1.27,.42v2.49l-1.27-.51v2.01l-2.79-4.23,2.79-2.38Zm-4.29-2.69l.98,.31v8.83l-.98-.35v-8.79Zm-41.11-21.61l.36,22.12,23.02,8.41-.13-22.42-23.25-8.12Zm35.99,26.37l2.52,4.06-5.02-1.82,2.51-2.24Zm3.89-3.72v5.76l-2.61-3.68,2.61-2.08Zm-9.97-5.13l.96,.32v8.82l-.96-.33v-8.8Zm2.17,2.37l2.49,3.85-2.49,1.92v-5.76Zm-20.82-10.68l.95,.31v.57c2.83,1.14,5.63,3.98,6.98,8.4-.88-1.49-1.66-1.77-3.04-1.3-.51-1.06-2.01-1.62-2.91-1.06-.25-.47-.61-.82-1-1.04l.05,8.41c0,.78-.54,1.47-1.86,1.21-1.21-.29-1.7-1.22-1.57-2.8h0l.67,.11c0,1.06,.08,1.66,.88,1.85,.68,.16,.99-.09,.99-.72h0l-.09-8.34c-.38-.03-.73,.07-.98,.29-.31-.78-1.77-1.82-2.87-1.05-.78-1.23-2.24-1.7-3.05-.8,1.04-3.16,3.88-4.26,6.85-3.46v-.56Zm15.24,8.21l2.72,4.29-2.69,2.24,.05-2.1-1.31-.31v-2.44l1.23,.46v-2.13Zm6.9,.92l5.09,1.85-2.55,2.24-2.55-4.09Zm-9.5-33.76l.05,22.91,24.21,8.44v-23.41l-24.26-7.95Zm4.52,19.79l14.47,4.94v2.88l-14.47-4.98v-2.84Zm-12.51,5.45l.05,.02c.09,.09,.09,1.1-.21,1.33-.15,.07-.38,.08-.56-.07-.19-.15-.29-.36-.21-.68s.88-.67,.99-.58l-.05-.02Zm1.34-2.29l.05,.02c.11,.09,.11,1.1-.21,1.33-.15,.07-.38,.08-.56-.07-.19-.15-.29-.36-.21-.68s.88-.67,.99-.58l-.05-.02Zm-3.75-.09l.05,.02c.11,.09,.11,1.1-.21,1.33-.15,.07-.38,.08-.56-.07-.19-.15-.29-.36-.21-.68s.88-.67,.99-.58l-.05-.02Zm-3.79-.55l.05,.02c.11,.09,.11,1.1-.21,1.33-.15,.07-.38,.08-.56-.07-.19-.15-.29-.36-.21-.68s.88-.67,.99-.58l-.05-.02Zm29.89-15.04l3.51,6.93-2.4-.82v10.04l-2.4-.83v-9.96s-2.37-.78-2.37-.78l3.66-4.58Zm-40.05-15.25l.42,22.6,23.3,8.01-.2-22.9-23.51-7.72Zm32.13,12.61l3.51,6.93-2.4-.82v10.04l-2.4-.83,.03-9.96-2.4-.78,3.66-4.58Zm-26.92-8.07l1.9,.63,.88,3.2-.99-.07,2.83,6.83-1.46-5.63h.83s-.84-3.94-.84-3.94l9.82,3.24v5.4c0,2.05-2.22,4.64-5.36,3.35h0v5.43s4.52,2.89,4.52,2.89l-10.89-3.78,4.38,.21-.08-5.37c-3.11-.92-5.36-4.66-5.36-6.94h0l-.17-5.47Z"/>
    <path class="cls-12" d="M268,267c-.54,.01-.94,.72-.95,1.37l-.12,.05-135.46-37.57c-.01-.25,.28-.42,.31-.58,.01-.01,.01-.03,0-.04-.09-.42-.88-1.98-1.14-2.14l-52.15-29.65,.44-1,140.23,35.97h.01l46.35,30.03c1.73,1.09,1.86,2.26,1.88,3.34,0,.01,0,.04,.01,.05,.05,.25,.38,.16,.59,.17Z"/>
    <path class="cls-8" d="M369.12,219.1c-1.02,1.02-1.49,2.26-1.29,2.77l-98.65,46.68-.2-.16c-.01-.78-.51-1.3-.88-1.38,.2,.03,.39,.09,.44-.16,.03-.16,.07-.35,.13-.55,.05-.17,.13-.36,.23-.56,.28-.64,.71-1.34,1.26-1.96,.08-.08,.16-.17,.24-.25l53.5-50.03,97.02-41.24,.59,.82-52.39,46.02Z"/>
    <path class="cls-28" d="M207.12,279.27c.15,.04,.2,.05,.2-.07l-.51-27.25c-.04-.92-.27-2.75-1.38-3.48l-49.4-30.01-23.15-5.98,50.2,30c1.26,.83,1.37,2.38,1.42,3.54l.72,26.5c0,.13,.03,.16,.12,.2l21.77,6.55Z"/>
    <path class="cls-7" d="M268,267c-.55,.01-.95,.76-.95,1.42-.01,.05-.11,.04-.12,0-.11-1.46-.71-3.1-1.5-3.67l-46.72-30.12,.46-1.22h.01l46.35,30.03c1.73,1.09,1.86,2.26,1.88,3.34,0,.01,0,.04,.01,.05,.05,.25,.38,.16,.59,.17Z"/>
    <polygon class="cls-27" points="219.16 233.42 218.71 234.63 78.49 198.44 78.94 197.45 219.16 233.42"/>
    <path class="cls-13" d="M367.85,221.87l-5.36,107.28c-.08,.68-.4,.88-1.09,1.35l-93.9,59.44c-.13,.09-.28,.15-.42,.19l.92-123.14c.24,.01,.47,.13,.52-.15,0-.04,.01-.07,.01-.11l99.27-44.98c0,.07,.01,.09,.03,.12Z"/>
    <path class="cls-2" d="M362.49,329.11v.05c-.08,.68-.4,.88-1.09,1.35l-93.9,59.44c-.13,.09-.28,.15-.42,.19v-.35l95.4-60.68Z"/>
    <path class="cls-14" d="M360.73,282.43l-2.14,43.68-31.22,19.44,1.61-45.46,31.75-17.66Zm-16.69,31.62l-15.52,9.12-.74,21.5,15.45-9.61,.8-21.02Zm-7.41,9.23l-.03,.72c1.85-.92,3.6-.28,4.34,2.79-.51-.71-1.43-.43-2.05,1.02-.28-.6-1.72-.11-1.93,1.15-.11-.2-.32-.28-.56-.25l-.34,8.29c-.03,.71-.07,1.47-.96,2.02-.42,.19-1.51,.33-1.37-1.21h0l.52-.4c-.04,.98,.21,1.27,.75,.95,.64-.39,.52-1,.55-1.58h0l.29-7.86c-.38,.25-.72,.68-.81,1.2-.16-.48-1.72-.19-1.9,1.19-.44-.59-1.65-.01-2.1,1.47,.84-3.86,2.92-7.07,4.99-8.45l.02-.64,.59-.43Zm22.64-18.24l-14.79,8.75-.82,21.08,14.63-9.2,.98-20.62Zm-4.57,7.1l.43,.4-3.22,7.31,2.66,3.67-.43,.91-2.65-3.63-3.19,7.24-.44-.4,3.25-7.36-2.75-3.76,.48-.91,2.69,3.72,3.18-7.19Zm-9,8.4l1.67,2.04-1.78,3.83v-1.69l-.75,.46,.04-2.18,.75-.44,.07-2.01Zm2.89-2.65l-.35,8.08-.6,.4,.33-8.05,.62-.43Zm2.83,4.22l1.43,1.89-3.08,1.88,1.65-3.76Zm-16.41,.59c.07,0,.03,.92-.2,1.38-.08,.16-.23,.33-.35,.35-.12,.01-.17-.12-.11-.47,.07-.35,.59-1.26,.66-1.26Zm14.26-3.71l1.42,1.76-1.66,3.28,.24-5.04Zm-10.18,2.04c.05,.01,.01,.94-.2,1.38-.08,.16-.23,.33-.35,.35-.12,.01-.17-.12-.11-.47,.07-.35,.59-1.26,.66-1.26Zm5.95-29.26l-15.68,8.79-.82,21.93,15.56-9.16,.94-21.56Zm10.33,22.01l-.38,8.07-.54,.35,.36-8.05,.55-.36Zm-17.75,6.65c.07,0,.03,.92-.2,1.38-.08,.16-.23,.33-.35,.35-.12,.01-.17-.12-.11-.47,.07-.35,.59-1.26,.66-1.26Zm16.37-4.3l-.21,5.15-1.39-1.66,1.61-3.48Zm3.32-2.45l-.08,1.98,.78-.43-.09,2.2-.75,.44-.03,1.81-1.62-1.94,1.8-4.06Zm-17.19,4.1c.07,0,.03,.92-.2,1.38-.08,.16-.23,.33-.35,.35-.12,.01-.17-.12-.11-.47,.07-.35,.59-1.26,.66-1.26Zm13.1-3.11l-1.66,3.81-1.43-1.94,3.1-1.86Zm-11.83-18.24l-.2,5.52c-.08,1.88-1.58,5.28-3.82,6.7h0l-.24,5.21,2.99-.64-7.28,4.21,3.03-2.88,.16-5.12c-1.94,1.11-3.5-.95-3.4-3.04h0l.17-5.06,1.31-.71,.43,2.44-.71,.58,1.57,4.54-.6-4.14,.54-.62-.42-3.26,6.47-3.72Zm19.03-13.21l-15.01,8.39-.94,21.56,14.87-8.9,1.07-21.05Zm-3.91,18.58l-.19,2.56-8.79,5.2,.12-2.59,8.86-5.17Zm-6.22-11.05l1.94,4.1-1.46,.82-.44,9.2-1.39,.8,.27-9.2-1.41,.84,2.49-6.57Zm4.88-2.71l1.89,4.03-1.55,.87-.32,9.14-1.49,.83,.47-9.2-1.46,.83,2.47-6.5Z"/>
    <path class="cls-22" d="M324.68,214.56l-53.04,49.31c-1.5,1.43-2.49,3.58-2.45,4.69-.03,.05-.16,.09-.21,0,.07-.86-.48-1.45-.88-1.54,.2,.03,.39,.09,.44-.16,.03-.16,.07-.35,.13-.55,.05-.17,.13-.36,.23-.56,.32-.72,.84-1.55,1.49-2.2l53.5-50.03,.8,1.05Z"/>
    <path class="cls-9" d="M312.98,274.37c0,.15,.07,.21,.16,.17l15.93-8.17s.04-.04,.05-.09l.88-26.11c.03-1.43,.83-2.85,1.93-3.83l52.91-47.55-16.1,6.9-53.18,48.18c-1.37,1.34-1.84,2.92-1.86,4.26l-.72,26.25Z"/>
    <polygon class="cls-16" points="324.68 214.56 421.49 173.08 420.9 172.27 323.89 213.5 324.68 214.56"/>
  </g>
</svg>