<?xml version="1.0" encoding="UTF-8"?>
<svg id="Layer_1" data-name="Layer 1" xmlns="http://www.w3.org/2000/svg" xmlns:xlink="http://www.w3.org/1999/xlink" viewBox="0 0 500 500">
  <defs>
    <style>
      .cls-1 {
        fill: url(#linear-gradient-2);
      }

      .cls-2 {
        fill: url(#linear-gradient-13);
      }

      .cls-2, .cls-3, .cls-4 {
        isolation: isolate;
      }

      .cls-2, .cls-4 {
        opacity: .54;
      }

      .cls-5 {
        fill: #bd8f63;
      }

      .cls-6 {
        fill: #d4a271;
      }

      .cls-7 {
        fill: #cd9c6b;
      }

      .cls-8 {
        fill: url(#linear-gradient-14);
      }

      .cls-9 {
        fill: url(#linear-gradient-6);
      }

      .cls-10 {
        fill: #e8b67f;
      }

      .cls-11 {
        fill: url(#linear-gradient-11);
      }

      .cls-12 {
        fill: #dbad77;
      }

      .cls-3 {
        fill: url(#linear-gradient-9);
        opacity: .75;
      }

      .cls-13 {
        fill: #322214;
      }

      .cls-14 {
        fill: #f8ce93;
      }

      .cls-15 {
        fill: #bf9064;
      }

      .cls-16 {
        fill: url(#linear-gradient-5);
      }

      .cls-4 {
        fill: url(#linear-gradient-10);
      }

      .cls-17 {
        fill: none;
      }

      .cls-18 {
        fill: url(#linear-gradient-7);
      }

      .cls-19 {
        fill: #d2a679;
      }

      .cls-20 {
        fill: #d7aa77;
      }

      .cls-21 {
        fill: url(#linear-gradient-3);
      }

      .cls-22 {
        fill: url(#linear-gradient);
      }

      .cls-23 {
        fill: url(#linear-gradient-4);
      }

      .cls-24 {
        fill: url(#linear-gradient-8);
      }

      .cls-25 {
        fill: #deb37e;
      }

      .cls-26 {
        fill: url(#linear-gradient-12);
      }
    </style>
    <linearGradient id="linear-gradient" x1="3.61" y1="503.08" x2="3.62" y2="503.07" gradientTransform="translate(84.51 23337.56) scale(71.1 -45.67)" gradientUnits="userSpaceOnUse">
      <stop offset="0" stop-color="#000"/>
      <stop offset="1" stop-color="#000" stop-opacity="0"/>
    </linearGradient>
    <linearGradient id="linear-gradient-2" x1="2.02" y1="503.83" x2="2.01" y2="503.82" gradientTransform="translate(-11.75 18907.7) scale(96.33 -36.8)" xlink:href="#linear-gradient"/>
    <linearGradient id="linear-gradient-3" x1="3.72" y1="506.06" x2="3.95" y2="505.99" gradientTransform="translate(7.9 20472.44) scale(55.69 -40.15)" gradientUnits="userSpaceOnUse">
      <stop offset="0" stop-color="#c37a44"/>
      <stop offset=".44" stop-color="#bb713d"/>
      <stop offset=".64" stop-color="#a05728"/>
      <stop offset="1" stop-color="#964e23"/>
    </linearGradient>
    <linearGradient id="linear-gradient-4" x1="1.87" y1="503.82" x2="1.45" y2="504.16" gradientTransform="translate(-48.29 32538) scale(111.45 -64.37)" gradientUnits="userSpaceOnUse">
      <stop offset="0" stop-color="#e9b880"/>
      <stop offset="1" stop-color="#e4af76"/>
    </linearGradient>
    <linearGradient id="linear-gradient-5" x1="2.91" y1="511.04" x2="2.88" y2="511.08" gradientTransform="translate(2.95 12050.64) scale(60.4 -23.31)" gradientUnits="userSpaceOnUse">
      <stop offset="0" stop-color="#c37a45" stop-opacity="0"/>
      <stop offset=".13" stop-color="#c37a45"/>
      <stop offset=".29" stop-color="#d08d55"/>
      <stop offset=".5" stop-color="#dea167"/>
      <stop offset=".7" stop-color="#e8af73"/>
      <stop offset=".86" stop-color="#ecb477"/>
      <stop offset="1" stop-color="#ecb477" stop-opacity="0"/>
    </linearGradient>
    <linearGradient id="linear-gradient-6" x1="3.39" y1="504.46" x2="2.91" y2="503.54" gradientTransform="translate(63.32 28290.98) scale(66.3 -55.79)" gradientUnits="userSpaceOnUse">
      <stop offset=".09" stop-color="#af6938"/>
      <stop offset=".48" stop-color="#9a5227"/>
      <stop offset=".78" stop-color="#8d4520"/>
    </linearGradient>
    <linearGradient id="linear-gradient-7" x1="2.1" y1="504.82" x2="2.39" y2="505.06" gradientTransform="translate(63.67 27355.48) scale(121.43 -53.99)" gradientUnits="userSpaceOnUse">
      <stop offset=".03" stop-color="#e4af76"/>
      <stop offset="1" stop-color="#e9b880"/>
    </linearGradient>
    <linearGradient id="linear-gradient-8" x1="3.32" y1="513.97" x2="3.34" y2="514" gradientTransform="translate(63.31 9775.72) scale(70.3 -18.76)" gradientUnits="userSpaceOnUse">
      <stop offset="0" stop-color="#af6a38" stop-opacity="0"/>
      <stop offset=".09" stop-color="#af6a38"/>
      <stop offset=".2" stop-color="#b87542"/>
      <stop offset=".58" stop-color="#d59c66"/>
      <stop offset=".78" stop-color="#e4af76"/>
      <stop offset=".92" stop-color="#e4af76" stop-opacity="0"/>
    </linearGradient>
    <linearGradient id="linear-gradient-9" x1="49.59" y1="505.84" x2="51.22" y2="505.84" gradientTransform="translate(61.65 20802.71) scale(3.41 -40.81)" gradientUnits="userSpaceOnUse">
      <stop offset="0" stop-color="#743f1a" stop-opacity="0"/>
      <stop offset=".49" stop-color="#743f1a" stop-opacity=".89"/>
      <stop offset=".5" stop-color="#743f1a" stop-opacity=".9"/>
      <stop offset=".53" stop-color="#743f1a" stop-opacity=".85"/>
      <stop offset="1" stop-color="#743f1a" stop-opacity="0"/>
    </linearGradient>
    <linearGradient id="linear-gradient-10" x1="2" y1="503.85" x2="2" y2="503.85" gradientTransform="translate(-12.27 18848.79) scale(97.03 -36.68)" gradientUnits="userSpaceOnUse">
      <stop offset="0" stop-color="#322214"/>
      <stop offset=".24" stop-color="#322314" stop-opacity=".99"/>
      <stop offset="1" stop-color="#322214" stop-opacity="0"/>
    </linearGradient>
    <linearGradient id="linear-gradient-11" x1="1.41" y1="504.25" x2="1.36" y2="504.19" gradientTransform="translate(-56 26891.03) scale(141.43 -52.98)" gradientUnits="userSpaceOnUse">
      <stop offset=".05" stop-color="#c69866"/>
      <stop offset=".42" stop-color="#ba8c5e"/>
      <stop offset=".81" stop-color="#b5875b"/>
    </linearGradient>
    <linearGradient id="linear-gradient-12" x1="2.93" y1="504.35" x2="2.21" y2="505.08" gradientTransform="translate(-15.41 25347.97) scale(55.56 -49.87)" gradientUnits="userSpaceOnUse">
      <stop offset="0" stop-color="#845f35"/>
      <stop offset=".43" stop-color="#91673c"/>
      <stop offset=".44" stop-color="#976a40"/>
      <stop offset=".87" stop-color="#986b40"/>
      <stop offset="1" stop-color="#ab8157"/>
    </linearGradient>
    <linearGradient id="linear-gradient-13" x1="3.62" y1="503.09" x2="3.62" y2="503.09" gradientTransform="translate(84.75 23274.45) scale(71.2 -45.55)" gradientUnits="userSpaceOnUse">
      <stop offset="0" stop-color="#322214" stop-opacity="0"/>
      <stop offset="1" stop-color="#322214"/>
    </linearGradient>
    <linearGradient id="linear-gradient-14" x1="4.99" y1="503.17" x2="5.08" y2="503.73" gradientTransform="translate(119 32403.64) scale(53.64 -64.02)" gradientUnits="userSpaceOnUse">
      <stop offset="0" stop-color="#a9794b"/>
      <stop offset=".39" stop-color="#ae7f53"/>
      <stop offset=".46" stop-color="#ac7d50"/>
      <stop offset=".62" stop-color="#a9794b"/>
      <stop offset="1" stop-color="#b2875d"/>
    </linearGradient>
  </defs>
  <rect class="cls-17" width="500" height="500"/>
  <g>
    <path class="cls-22" d="M273.91,401.83l134.25-84.9c.5-.31,1.15-.17,1.45,.32s.17,1.15-.32,1.45l-134.69,85.16c-.17,.11-.36,.17-.55,.17l-.13-2.22Z"/>
    <path class="cls-1" d="M274.05,404.05c-.11,0-.25-.02-.36-.06l-183.04-68.22c-.55-.21-.82-.8-.61-1.36,.21-.55,.8-.82,1.36-.61l182.56,68.02,.1,2.22Z"/>
    <path class="cls-10" d="M466.12,77.9l-21.13,34.99-84.9,36.09-4.72,2.01-76.3,71.35c-1.47,1.47-2.46,3.57-2.64,4.74-.08,.4-.42,.23-.75,.21-.34-.02-.82,.11-.86-.31-.04-1.53-.21-3.23-2.68-4.76l-38.24-24.76h0l-27.88-18.08-78.53-20.14-65.73-16.85L20.14,77.71l.63-.73,.04-.06L177.11,36.3c.23-.08,.27-.04,.36,.1l53.31,79.85,1.05,1.57c1.15,1.68,1.26,2.71,1.26,3.46h.97v-.17c0-.08,0-.17,.02-.27,0-.06,.02-.11,.02-.19,.02-.08,.02-.15,.04-.23,.02-.08,.02-.15,.04-.25,.06-.27,.13-.57,.21-.88,.02-.1,.06-.19,.08-.27,.1-.31,.19-.63,.31-.94,.06-.11,.1-.25,.15-.36,.15-.38,.31-.73,.48-1.03,.15-.31,.31-.55,.46-.76l48.06-69.9c.11-.17,.17-.25,.42-.21l181.47,31.22,.31,.86Z"/>
    <polygon class="cls-21" points="233.92 197.44 233.9 197.44 206.04 179.38 127.51 159.24 233.1 121.27 233.39 120.72 233.39 121.27 233.92 197.44"/>
    <path class="cls-23" d="M233.1,121.27l-105.59,37.95-9.52-2.45-56.22-14.43L20.14,77.67l.67-.78L177.11,36.26c.23-.08,.27-.04,.36,.1l53.31,79.85,1.05,1.57c1.15,1.72,1.26,2.75,1.26,3.5Z"/>
    <path class="cls-16" d="M233.47,125.3l-99.84,35.88-15.57-3.99,112.79-40.55,1.05,1.57c1.15,1.68,1.26,2.71,1.26,3.46h.29l.02,3.63Z"/>
    <polygon class="cls-19" points="63.21 142.73 61.8 142.37 20.16 77.69 20.79 76.96 63.21 142.73"/>
    <path class="cls-9" d="M360.09,148.98l-4.72,2.01-76.3,71.35c-1.47,1.47-2.46,3.57-2.64,4.74-.08,.4-.42,.23-.75,.21-.34-.02-.82,.11-.86-.31-.04-1.53-.21-3.23-2.68-4.76l-38.24-24.78-.52-76.15v-.55l.71,.55,125.98,27.69Z"/>
    <path class="cls-18" d="M466.12,77.9l-21.13,34.99-77.27,32.85-7.6,3.23-126.02-27.69c-.08-.97,.59-3.19,1.32-4.61,.15-.31,.31-.55,.46-.76l48.06-69.9c.11-.17,.17-.25,.42-.21l181.47,31.22,.31,.88Z"/>
    <path class="cls-24" d="M367.71,145.73l-12.32,5.24-1.59,1.53-120.42-26.62,.55-4.62h.15c-.08-.97,.59-3.19,1.32-4.61l132.3,29.08Z"/>
    <polygon class="cls-3" points="236.73 121.85 236.73 199.25 233.92 197.44 233.9 197.44 230.21 195.03 230.21 122.3 233.1 121.27 234.07 121.27 236.73 121.85"/>
    <path class="cls-15" d="M273.3,402.81l-183.19-68.35c-1.03-.44-1.18-1.41-1.24-2.62,0,0-7.87-156.11-7.89-156.13-.02-.4,.48-.65,.44-.9-.13-.59-1.26-2.83-1.62-3.06L5.41,129.49l.63-1.43,200,51.32,66.09,42.82c2.46,1.53,2.66,3.23,2.68,4.76,.02,.42,.52,.29,.86,.31s.67,.19,.75-.21c.17-1.17,1.17-3.27,2.64-4.72l76.3-71.35,138.36-58.81,.84,1.17-74.69,65.64c-1.45,1.45-2.12,3.23-1.83,3.96l-7.64,153c-.11,.97-.57,1.26-1.55,1.93l-133.91,84.76c-.54,.34-1.11,.44-1.62,.19Z"/>
    <path class="cls-5" d="M275.67,227.26l-1.32,175.62c-.36,.1-.73,.08-1.07-.08l-183.19-68.33c-1.03-.44-1.18-1.43-1.24-2.62,0,0-7.89-156.11-7.89-156.13v-.04s0-.08,.02-.11c0-.04,.02-.06,.04-.08,.02-.04,.04-.06,.06-.1,.02-.04,.04-.06,.06-.1,.08-.11,.19-.23,.23-.32,.02-.02,.02-.04,.02-.06v-.02l193.45,52.13c.08,.34,.54,.21,.84,.23Z"/>
    <path class="cls-4" d="M274.37,402.37v.5c-.36,.1-.73,.08-1.07-.08l-183.19-68.33c-.73-.31-1.01-.9-1.15-1.62l185.4,69.53Z"/>
    <path class="cls-13" d="M191.54,295.84l70.93,23.2-.17,69.17-69.61-25.57-1.15-66.8Zm35.54,46.47l.17,32.04,34.35,12.62v-32.67s-34.53-12-34.53-12Zm10.15,10.35l6.94,11.05,6.8-5.96,1.18,1.35-7.02,6.15,7.03,11.19-1.02,.64-6.93-11.03-6.77,5.93-1.18-1.35,6.98-6.12-7.04-11.21,1.02-.64Zm20.44,12.44v3.15l1.82,.59v3.55l-1.82-.73v2.87l-3.97-6.04,3.97-3.4Zm-6.11-3.84l1.39,.44v12.59l-1.39-.5v-12.53Zm-58.62-30.82l.52,31.55,32.83,12-.19-31.97-33.15-11.58Zm51.32,37.6l3.59,5.79-7.17-2.6,3.57-3.19Zm5.54-5.31v8.22l-3.73-5.25,3.73-2.96Zm-14.22-7.32l1.38,.46v12.57l-1.38-.48v-12.55Zm3.1,3.38l3.55,5.48-3.55,2.73v-8.22Zm-29.69-15.23l1.36,.44v.81c4.04,1.62,8.03,5.68,9.96,11.98-1.26-2.12-2.37-2.52-4.34-1.85-.73-1.51-2.87-2.31-4.15-1.51-.35-.66-.86-1.16-1.42-1.48l.07,11.99c0,1.11-.76,2.1-2.66,1.72-1.72-.42-2.43-1.74-2.24-3.99h0l.96,.15c0,1.51,.11,2.37,1.26,2.64,.97,.23,1.41-.13,1.41-1.03h0l-.13-11.9c-.54-.04-1.04,.09-1.4,.41-.44-1.11-2.52-2.6-4.09-1.49-1.11-1.76-3.19-2.43-4.36-1.15,1.49-4.5,5.53-6.08,9.77-4.94v-.79Zm21.74,11.71l3.88,6.11-3.84,3.19,.08-3-1.87-.44v-3.48l1.76,.65v-3.04Zm9.84,1.32l7.26,2.64-3.63,3.19-3.63-5.83Zm-13.55-48.15l.08,32.67,34.53,12.04v-33.38l-34.6-11.33Zm6.44,28.22l20.64,7.05v4.11l-20.64-7.11v-4.05Zm-17.84,7.77l.07,.02c.13,.13,.13,1.57-.31,1.89-.21,.1-.54,.11-.8-.1-.27-.21-.42-.52-.31-.97s1.26-.96,1.41-.82l-.07-.02Zm1.91-3.27l.07,.02c.15,.13,.15,1.57-.31,1.89-.21,.1-.54,.11-.8-.1-.27-.21-.42-.52-.31-.97s1.26-.96,1.41-.82l-.07-.02Zm-5.35-.13l.07,.02c.15,.13,.15,1.57-.31,1.89-.21,.1-.54,.11-.8-.1-.27-.21-.42-.52-.31-.97s1.26-.96,1.41-.82l-.07-.02Zm-5.41-.78l.07,.02c.15,.13,.15,1.57-.31,1.89-.21,.1-.54,.11-.8-.1-.27-.21-.42-.52-.31-.97s1.26-.96,1.41-.82l-.07-.02Zm42.63-21.46l5.01,9.88-3.42-1.17v14.31l-3.42-1.18,.02-14.2-3.4-1.11,5.22-6.53Zm-57.11-21.74l.59,32.24,33.23,11.43-.29-32.66-33.53-11.01Zm45.82,17.98l5.01,9.88-3.42-1.17v14.31l-3.42-1.18,.04-14.2-3.42-1.11,5.22-6.53Zm-38.39-11.5l2.71,.9,1.26,4.57-1.41-.1,4.03,9.75-2.08-8.03,1.18-.02-1.2-5.6,14.01,4.62v7.7c0,2.92-3.17,6.61-7.64,4.78h0l.02,7.74,6.42,4.13-15.53-5.39,6.25,.31-.11-7.66c-4.43-1.32-7.64-6.65-7.64-9.9h0l-.25-7.8Z"/>
    <path class="cls-11" d="M275.67,227.26c-.76,.02-1.34,1.03-1.36,1.95l-.17,.08-193.18-53.58c-.02-.36,.4-.59,.44-.82,.02-.02,.02-.04,0-.06-.13-.59-1.26-2.83-1.62-3.06L5.41,129.49l.63-1.43,199.98,51.3h.02l66.09,42.82c2.46,1.55,2.66,3.23,2.68,4.76,0,.02,0,.06,.02,.08,.08,.36,.54,.23,.84,.25Z"/>
    <path class="cls-7" d="M419.88,158.95c-1.45,1.45-2.12,3.23-1.83,3.96l-140.69,66.57-.29-.23c-.02-1.11-.73-1.85-1.26-1.97,.29,.04,.55,.13,.63-.23,.04-.23,.1-.5,.19-.78,.08-.25,.19-.52,.32-.8,.4-.92,1.01-1.91,1.8-2.79,.11-.11,.23-.25,.34-.36l76.3-71.35,138.36-58.81,.84,1.17-74.71,65.64Z"/>
    <path class="cls-26" d="M188.84,244.77c.21,.06,.29,.08,.29-.1l-.73-38.87c-.06-1.32-.38-3.92-1.97-4.97l-70.45-42.8-33.02-8.52,71.6,42.78c1.8,1.18,1.95,3.4,2.03,5.04l1.03,37.8c0,.19,.04,.23,.17,.29l31.05,9.34Z"/>
    <path class="cls-6" d="M275.67,227.26c-.78,.02-1.36,1.09-1.36,2.03-.02,.08-.15,.06-.17,0-.15-2.08-1.01-4.41-2.14-5.24l-66.63-42.95,.65-1.74h.02l66.09,42.82c2.46,1.55,2.66,3.23,2.68,4.76,0,.02,0,.06,.02,.08,.08,.36,.54,.23,.84,.25Z"/>
    <polygon class="cls-25" points="206.02 179.38 205.37 181.1 5.41 129.49 6.04 128.07 206.02 179.38"/>
    <path class="cls-12" d="M418.06,162.91l-7.64,153c-.11,.97-.57,1.26-1.55,1.93l-133.91,84.76c-.19,.13-.4,.21-.59,.27l1.32-175.62c.34,.02,.67,.19,.75-.21,0-.06,.02-.1,.02-.15l141.57-64.15c0,.1,.02,.13,.04,.17Z"/>
    <path class="cls-2" d="M410.42,315.85v.08c-.11,.97-.57,1.26-1.55,1.93l-133.91,84.76c-.19,.13-.4,.21-.59,.27v-.5l136.05-86.54Z"/>
    <path class="cls-13" d="M407.92,249.28l-3.06,62.29-44.52,27.73,2.29-64.83,45.29-25.18Zm-23.81,45.09l-22.13,13.01-1.05,30.67,22.03-13.7,1.15-29.98Zm-10.57,13.17l-.04,1.03c2.64-1.32,5.14-.4,6.19,3.97-.73-1.01-2.04-.61-2.92,1.45-.4-.86-2.45-.15-2.75,1.64-.16-.29-.46-.4-.79-.36l-.49,11.83c-.04,1.01-.1,2.1-1.38,2.89-.59,.27-2.16,.48-1.95-1.72h0l.75-.57c-.06,1.39,.31,1.82,1.07,1.36,.92-.55,.75-1.43,.78-2.25h0l.41-11.2c-.54,.35-1.02,.97-1.16,1.71-.23-.69-2.45-.27-2.71,1.7-.63-.84-2.35-.02-3,2.1,1.2-5.51,4.16-10.08,7.12-12.05l.03-.91,.84-.61Zm32.29-26.01l-21.1,12.48-1.17,30.06,20.87-13.13,1.39-29.41Zm-6.52,10.13l.61,.57-4.6,10.43,3.79,5.24-.61,1.3-3.78-5.18-4.55,10.32-.63-.57,4.63-10.49-3.92-5.37,.69-1.3,3.84,5.3,4.53-10.25Zm-12.84,11.98l2.39,2.9-2.54,5.46v-2.41l-1.07,.65,.06-3.11,1.07-.63,.1-2.87Zm4.13-3.78l-.5,11.52-.86,.57,.48-11.48,.88-.61Zm4.03,6.02l2.04,2.69-4.39,2.68,2.35-5.37Zm-23.41,.84c.1,0,.04,1.32-.29,1.97-.11,.23-.32,.48-.5,.5-.17,.02-.25-.17-.15-.67,.1-.5,.84-1.8,.94-1.8Zm20.33-5.29l2.03,2.5-2.37,4.68,.34-7.18Zm-14.52,2.9c.08,.02,.02,1.34-.29,1.97-.11,.23-.32,.48-.5,.5-.17,.02-.25-.17-.15-.67,.1-.5,.84-1.8,.94-1.8Zm8.48-41.73l-22.36,12.53-1.17,31.28,22.18-13.07,1.34-30.74Zm14.73,31.39l-.54,11.5-.76,.5,.52-11.48,.78-.52Zm-25.32,9.48c.1,0,.04,1.32-.29,1.97-.11,.23-.32,.48-.5,.5-.17,.02-.25-.17-.15-.67,.1-.5,.84-1.8,.94-1.8Zm23.35-6.13l-.31,7.34-1.99-2.37,2.29-4.97Zm4.74-3.5l-.11,2.83,1.11-.61-.13,3.13-1.07,.63-.04,2.58-2.31-2.77,2.56-5.79Zm-24.52,5.85c.1,0,.04,1.32-.29,1.97-.11,.23-.32,.48-.5,.5-.17,.02-.25-.17-.15-.67,.1-.5,.84-1.8,.94-1.8Zm18.69-4.43l-2.37,5.43-2.04-2.77,4.41-2.66Zm-16.87-26.01l-.29,7.87c-.11,2.68-2.25,7.53-5.45,9.55h0l-.34,7.43,4.26-.92-10.38,6,4.32-4.11,.23-7.3c-2.77,1.59-4.99-1.36-4.85-4.34h0l.25-7.22,1.87-1.01,.61,3.48-1.01,.82,2.24,6.48-.86-5.9,.76-.88-.59-4.64,9.23-5.31Zm27.13-18.84l-21.4,11.96-1.34,30.74,21.21-12.69,1.53-30.02Zm-5.58,26.5l-.27,3.65-12.53,7.41,.17-3.69,12.63-7.38Zm-8.87-15.76l2.77,5.85-2.08,1.17-.63,13.13-1.99,1.15,.38-13.13-2.01,1.2,3.55-9.36Zm6.96-3.86l2.69,5.75-2.22,1.24-.46,13.03-2.12,1.18,.67-13.13-2.08,1.18,3.52-9.27Z"/>
    <path class="cls-20" d="M356.5,152.48l-75.65,70.32c-2.14,2.04-3.55,5.1-3.5,6.69-.04,.08-.23,.13-.31,0,.1-1.22-.69-2.06-1.26-2.2,.29,.04,.55,.13,.63-.23,.04-.23,.1-.5,.19-.78,.08-.25,.19-.52,.32-.8,.46-1.03,1.2-2.22,2.12-3.13l76.3-71.35,1.15,1.49Z"/>
    <path class="cls-8" d="M339.82,237.77c0,.21,.1,.31,.23,.25l22.72-11.66s.06-.06,.08-.13l1.26-37.24c.04-2.04,1.18-4.07,2.75-5.46l75.46-67.81-22.97,9.84-75.84,68.71c-1.95,1.91-2.62,4.17-2.66,6.08l-1.03,37.43Z"/>
    <polygon class="cls-14" points="356.5 152.48 494.57 93.32 493.73 92.17 355.37 150.97 356.5 152.48"/>
  </g>
</svg>